<?xml version="1.0" encoding="UTF-8"?>
<svg id="Layer_2" xmlns="http://www.w3.org/2000/svg" viewBox="0 0 295.12 65.39">
  <defs>
    <style>
      .cls-1 {
        fill: #fff;
      }

      .cls-2 {
        fill: #f97316;
      }

      .cls-3 {
        fill: #1e40af;
      }

      .cls-4 {
        fill: #111827;
      }
    </style>
  </defs>
  <g id="Layer_1-2" data-name="Layer_1">
    <g>
      <g>
        <path class="cls-4" d="M84.93,6.2c16.73,0,23.99,8.53,23.99,23.03s-7.25,23.03-23.99,23.03h-15.3V6.2h15.3ZM81.27,14.8v28.92h3.58c9.32,0,12.27-5.34,12.27-14.5s-2.95-14.42-12.27-14.42h-3.58Z"/>
        <path class="cls-4" d="M112.34,8.99l7.01-7.01,7.01,7.01-7.01,6.93-7.01-6.93ZM113.78,18.95h11.15v33.3h-11.15V18.95Z"/>
        <path class="cls-4" d="M163.81,18.95v33.3c-.56,9.16-5.74,13.14-17.21,13.14-10.04,0-15.14-3.58-16.81-12.03h10.92c.39,3.18,2.15,4.54,5.74,4.54,4.3,0,6.29-1.6,6.29-5.42v-4.22c-2.23,2.07-5.1,3.18-8.68,3.18-8.29,0-13.15-6.13-13.15-16.65s4.86-16.65,13.15-16.65c4.38,0,7.81,1.68,10.12,4.78v-3.98h9.64ZM142.14,34.72c0,5.34,2.15,8.52,5.81,8.52,2.63,0,4.54-1.35,5.5-3.82v-9.32c-.95-2.39-2.87-3.75-5.5-3.75-3.66,0-5.81,3.11-5.81,8.37Z"/>
        <path class="cls-4" d="M168.91,8.99l7.01-7.01,7.01,7.01-7.01,6.93-7.01-6.93ZM170.34,18.95h11.16v33.3h-11.16V18.95Z"/>
        <path class="cls-4" d="M188.03,5.32h11.16v46.93h-11.16V5.32Z"/>
        <path class="cls-4" d="M204.29,8.99l7.01-7.01,7.01,7.01-7.01,6.93-7.01-6.93ZM205.72,18.95h11.16v33.3h-11.16V18.95Z"/>
        <path class="cls-4" d="M233.77,18.95v4.38c2.23-3.35,5.5-5.18,9.72-5.18,7.33,0,11.71,4.78,11.71,12.99v21.11h-11.15v-21.35c0-2.87-1.44-4.54-3.91-4.54-2.63,0-4.54,1.59-5.58,4.46v21.43h-11.16V18.95h10.36Z"/>
        <path class="cls-2" d="M270.81,18.95l5.5,8.61,5.34-8.61h12.35l-11.47,15.54,12.59,17.77h-12.51l-6.45-9.96-6.53,9.96h-12.51l12.91-17.69-11.87-15.61h12.67Z"/>
      </g>
      <circle class="cls-3" cx="29.27" cy="29.27" r="29.27"/>
      <g>
        <path class="cls-1" d="M46.94,15.83c.37.92.56,1.9.56,2.9s-.19,1.97-.56,2.9c-.39.96-.96,1.81-1.69,2.55l-4.88,4.88c-.73.73-1.59,1.3-2.55,1.69-.92.37-1.9.56-2.9.56s-1.97-.19-2.9-.56c-.18-.07-.36-.15-.53-.24l2.43-2.43c.33.07.66.11.99.11,1.17,0,2.34-.45,3.24-1.34l4.88-4.88c1.78-1.78,1.78-4.69,0-6.47-1.78-1.78-4.69-1.78-6.47,0l-4.88,4.88c-1.15,1.15-1.56,2.75-1.23,4.23l-2.43,2.43c-.09-.17-.17-.35-.24-.53-.37-.92-.56-1.9-.56-2.9s.19-1.97.56-2.9c.39-.96.96-1.81,1.69-2.55l4.88-4.88c.73-.73,1.59-1.3,2.55-1.69.92-.37,1.9-.56,2.9-.56s1.97.19,2.9.56c.96.39,1.81.96,2.55,1.69.73.73,1.3,1.59,1.69,2.55Z"/>
        <g>
          <path class="cls-1" d="M30.74,37.83c.37-.92.56-1.9.56-2.9s-.19-1.97-.56-2.9c-.07-.18-.15-.36-.24-.53l-2.43,2.43c.33,1.48-.08,3.08-1.23,4.23l-4.88,4.88c-.89.89-2.06,1.34-3.24,1.34-1.17,0-2.34-.45-3.24-1.34-1.78-1.78-1.78-4.69,0-6.47l4.88-4.88c1.15-1.15,2.75-1.56,4.23-1.23l2.43-2.43c-.17-.09-.35-.17-.53-.24-.92-.37-1.9-.56-2.9-.56s-1.97.19-2.9.56c-.96.39-1.81.96-2.55,1.69l-4.88,4.88c-.73.73-1.3,1.59-1.69,2.55-.37.92-.56,1.9-.56,2.9,0,1,.19,1.97.56,2.9.39.96.96,1.81,1.69,2.55s1.59,1.3,2.55,1.69c.92.37,1.9.56,2.9.56,1,0,1.97-.19,2.9-.56.96-.39,1.81-.96,2.55-1.69l4.88-4.88c.73-.73,1.3-1.59,1.69-2.55Z"/>
          <path class="cls-1" d="M24.03,34.5c-.61-.61-.61-1.6,0-2.21l8.26-8.26c.61-.61,1.6-.61,2.21,0s.61,1.6,0,2.21l-8.26,8.26c-.61.61-1.6.61-2.21,0Z"/>
        </g>
      </g>
    </g>
  </g>
</svg>